<mxfile host="app.diagrams.net" modified="2022-01-05T04:19:25.874Z" agent="5.0 (Windows NT 10.0; Win64; x64) AppleWebKit/537.36 (KHTML, like Gecko) Chrome/96.0.4664.110 Safari/537.36 Edg/96.0.1054.62" etag="K9Ek861nnMCQl9IGm1Gr" version="15.9.6" type="github" pages="2">
  <diagram id="dL1ggncrTqF9g9zajkIT" name="Table Relationship">
    <mxGraphModel dx="3301" dy="1293" grid="1" gridSize="10" guides="1" tooltips="1" connect="1" arrows="1" fold="1" page="1" pageScale="1" pageWidth="850" pageHeight="1100" math="0" shadow="0">
      <root>
        <mxCell id="0" />
        <mxCell id="1" parent="0" />
        <mxCell id="ncc67CK_6W_dvuO7v1l9-24" value="Member" style="shape=table;startSize=30;container=1;collapsible=1;childLayout=tableLayout;fixedRows=1;rowLines=0;fontStyle=1;align=center;resizeLast=1;" parent="1" vertex="1">
          <mxGeometry x="130" y="410" width="260" height="180" as="geometry" />
        </mxCell>
        <mxCell id="ncc67CK_6W_dvuO7v1l9-25" value="" style="shape=partialRectangle;collapsible=0;dropTarget=0;pointerEvents=0;fillColor=none;points=[[0,0.5],[1,0.5]];portConstraint=eastwest;top=0;left=0;right=0;bottom=1;" parent="ncc67CK_6W_dvuO7v1l9-24" vertex="1">
          <mxGeometry y="30" width="260" height="30" as="geometry" />
        </mxCell>
        <mxCell id="ncc67CK_6W_dvuO7v1l9-26" value="PK" style="shape=partialRectangle;overflow=hidden;connectable=0;fillColor=none;top=0;left=0;bottom=0;right=0;fontStyle=1;" parent="ncc67CK_6W_dvuO7v1l9-25" vertex="1">
          <mxGeometry width="30" height="30" as="geometry">
            <mxRectangle width="30" height="30" as="alternateBounds" />
          </mxGeometry>
        </mxCell>
        <mxCell id="ncc67CK_6W_dvuO7v1l9-27" value="id" style="shape=partialRectangle;overflow=hidden;connectable=0;fillColor=none;top=0;left=0;bottom=0;right=0;align=left;spacingLeft=6;fontStyle=5;" parent="ncc67CK_6W_dvuO7v1l9-25" vertex="1">
          <mxGeometry x="30" width="230" height="30" as="geometry">
            <mxRectangle width="230" height="30" as="alternateBounds" />
          </mxGeometry>
        </mxCell>
        <mxCell id="ncc67CK_6W_dvuO7v1l9-28" value="" style="shape=partialRectangle;collapsible=0;dropTarget=0;pointerEvents=0;fillColor=none;points=[[0,0.5],[1,0.5]];portConstraint=eastwest;top=0;left=0;right=0;bottom=0;" parent="ncc67CK_6W_dvuO7v1l9-24" vertex="1">
          <mxGeometry y="60" width="260" height="30" as="geometry" />
        </mxCell>
        <mxCell id="ncc67CK_6W_dvuO7v1l9-29" value="" style="shape=partialRectangle;overflow=hidden;connectable=0;fillColor=none;top=0;left=0;bottom=0;right=0;" parent="ncc67CK_6W_dvuO7v1l9-28" vertex="1">
          <mxGeometry width="30" height="30" as="geometry">
            <mxRectangle width="30" height="30" as="alternateBounds" />
          </mxGeometry>
        </mxCell>
        <mxCell id="ncc67CK_6W_dvuO7v1l9-30" value="name" style="shape=partialRectangle;overflow=hidden;connectable=0;fillColor=none;top=0;left=0;bottom=0;right=0;align=left;spacingLeft=6;" parent="ncc67CK_6W_dvuO7v1l9-28" vertex="1">
          <mxGeometry x="30" width="230" height="30" as="geometry">
            <mxRectangle width="230" height="30" as="alternateBounds" />
          </mxGeometry>
        </mxCell>
        <mxCell id="ncc67CK_6W_dvuO7v1l9-31" style="shape=partialRectangle;collapsible=0;dropTarget=0;pointerEvents=0;fillColor=none;points=[[0,0.5],[1,0.5]];portConstraint=eastwest;top=0;left=0;right=0;bottom=0;" parent="ncc67CK_6W_dvuO7v1l9-24" vertex="1">
          <mxGeometry y="90" width="260" height="30" as="geometry" />
        </mxCell>
        <mxCell id="ncc67CK_6W_dvuO7v1l9-32" style="shape=partialRectangle;overflow=hidden;connectable=0;fillColor=none;top=0;left=0;bottom=0;right=0;" parent="ncc67CK_6W_dvuO7v1l9-31" vertex="1">
          <mxGeometry width="30" height="30" as="geometry">
            <mxRectangle width="30" height="30" as="alternateBounds" />
          </mxGeometry>
        </mxCell>
        <mxCell id="ncc67CK_6W_dvuO7v1l9-33" value="id_number" style="shape=partialRectangle;overflow=hidden;connectable=0;fillColor=none;top=0;left=0;bottom=0;right=0;align=left;spacingLeft=6;strokeWidth=1;strokeColor=default;" parent="ncc67CK_6W_dvuO7v1l9-31" vertex="1">
          <mxGeometry x="30" width="230" height="30" as="geometry">
            <mxRectangle width="230" height="30" as="alternateBounds" />
          </mxGeometry>
        </mxCell>
        <mxCell id="ncc67CK_6W_dvuO7v1l9-34" style="shape=partialRectangle;collapsible=0;dropTarget=0;pointerEvents=0;fillColor=none;points=[[0,0.5],[1,0.5]];portConstraint=eastwest;top=0;left=0;right=0;bottom=0;" parent="ncc67CK_6W_dvuO7v1l9-24" vertex="1">
          <mxGeometry y="120" width="260" height="30" as="geometry" />
        </mxCell>
        <mxCell id="ncc67CK_6W_dvuO7v1l9-35" value="" style="shape=partialRectangle;overflow=hidden;connectable=0;fillColor=none;top=0;left=0;bottom=0;right=0;" parent="ncc67CK_6W_dvuO7v1l9-34" vertex="1">
          <mxGeometry width="30" height="30" as="geometry">
            <mxRectangle width="30" height="30" as="alternateBounds" />
          </mxGeometry>
        </mxCell>
        <mxCell id="ncc67CK_6W_dvuO7v1l9-36" value="domicile" style="shape=partialRectangle;overflow=hidden;connectable=0;fillColor=none;top=0;left=0;bottom=0;right=0;align=left;spacingLeft=6;" parent="ncc67CK_6W_dvuO7v1l9-34" vertex="1">
          <mxGeometry x="30" width="230" height="30" as="geometry">
            <mxRectangle width="230" height="30" as="alternateBounds" />
          </mxGeometry>
        </mxCell>
        <mxCell id="ncc67CK_6W_dvuO7v1l9-37" style="shape=partialRectangle;collapsible=0;dropTarget=0;pointerEvents=0;fillColor=none;points=[[0,0.5],[1,0.5]];portConstraint=eastwest;top=0;left=0;right=0;bottom=0;" parent="ncc67CK_6W_dvuO7v1l9-24" vertex="1">
          <mxGeometry y="150" width="260" height="30" as="geometry" />
        </mxCell>
        <mxCell id="ncc67CK_6W_dvuO7v1l9-38" style="shape=partialRectangle;overflow=hidden;connectable=0;fillColor=none;top=0;left=0;bottom=0;right=0;" parent="ncc67CK_6W_dvuO7v1l9-37" vertex="1">
          <mxGeometry width="30" height="30" as="geometry">
            <mxRectangle width="30" height="30" as="alternateBounds" />
          </mxGeometry>
        </mxCell>
        <mxCell id="ncc67CK_6W_dvuO7v1l9-39" value="datebirth" style="shape=partialRectangle;overflow=hidden;connectable=0;fillColor=none;top=0;left=0;bottom=0;right=0;align=left;spacingLeft=6;" parent="ncc67CK_6W_dvuO7v1l9-37" vertex="1">
          <mxGeometry x="30" width="230" height="30" as="geometry">
            <mxRectangle width="230" height="30" as="alternateBounds" />
          </mxGeometry>
        </mxCell>
        <mxCell id="ncc67CK_6W_dvuO7v1l9-64" value="" style="shape=partialRectangle;overflow=hidden;connectable=0;fillColor=none;top=0;left=0;bottom=0;right=0;" parent="1" vertex="1">
          <mxGeometry x="-730" y="160" width="30" height="30" as="geometry">
            <mxRectangle width="30" height="30" as="alternateBounds" />
          </mxGeometry>
        </mxCell>
        <mxCell id="ncc67CK_6W_dvuO7v1l9-241" value="User" style="shape=table;startSize=30;container=1;collapsible=1;childLayout=tableLayout;fixedRows=1;rowLines=0;fontStyle=1;align=center;resizeLast=1;" parent="1" vertex="1">
          <mxGeometry x="-640" y="430" width="240" height="120" as="geometry" />
        </mxCell>
        <mxCell id="ncc67CK_6W_dvuO7v1l9-242" value="" style="shape=partialRectangle;collapsible=0;dropTarget=0;pointerEvents=0;fillColor=none;points=[[0,0.5],[1,0.5]];portConstraint=eastwest;top=0;left=0;right=0;bottom=1;" parent="ncc67CK_6W_dvuO7v1l9-241" vertex="1">
          <mxGeometry y="30" width="240" height="30" as="geometry" />
        </mxCell>
        <mxCell id="ncc67CK_6W_dvuO7v1l9-243" value="PK" style="shape=partialRectangle;overflow=hidden;connectable=0;fillColor=none;top=0;left=0;bottom=0;right=0;fontStyle=1;" parent="ncc67CK_6W_dvuO7v1l9-242" vertex="1">
          <mxGeometry width="30" height="30" as="geometry">
            <mxRectangle width="30" height="30" as="alternateBounds" />
          </mxGeometry>
        </mxCell>
        <mxCell id="ncc67CK_6W_dvuO7v1l9-244" value="id" style="shape=partialRectangle;overflow=hidden;connectable=0;fillColor=none;top=0;left=0;bottom=0;right=0;align=left;spacingLeft=6;fontStyle=5;" parent="ncc67CK_6W_dvuO7v1l9-242" vertex="1">
          <mxGeometry x="30" width="210" height="30" as="geometry">
            <mxRectangle width="210" height="30" as="alternateBounds" />
          </mxGeometry>
        </mxCell>
        <mxCell id="ncc67CK_6W_dvuO7v1l9-245" value="" style="shape=partialRectangle;collapsible=0;dropTarget=0;pointerEvents=0;fillColor=none;points=[[0,0.5],[1,0.5]];portConstraint=eastwest;top=0;left=0;right=0;bottom=0;" parent="ncc67CK_6W_dvuO7v1l9-241" vertex="1">
          <mxGeometry y="60" width="240" height="30" as="geometry" />
        </mxCell>
        <mxCell id="ncc67CK_6W_dvuO7v1l9-246" value="" style="shape=partialRectangle;overflow=hidden;connectable=0;fillColor=none;top=0;left=0;bottom=0;right=0;" parent="ncc67CK_6W_dvuO7v1l9-245" vertex="1">
          <mxGeometry width="30" height="30" as="geometry">
            <mxRectangle width="30" height="30" as="alternateBounds" />
          </mxGeometry>
        </mxCell>
        <mxCell id="ncc67CK_6W_dvuO7v1l9-247" value="email" style="shape=partialRectangle;overflow=hidden;connectable=0;fillColor=none;top=0;left=0;bottom=0;right=0;align=left;spacingLeft=6;" parent="ncc67CK_6W_dvuO7v1l9-245" vertex="1">
          <mxGeometry x="30" width="210" height="30" as="geometry">
            <mxRectangle width="210" height="30" as="alternateBounds" />
          </mxGeometry>
        </mxCell>
        <mxCell id="ncc67CK_6W_dvuO7v1l9-248" style="shape=partialRectangle;collapsible=0;dropTarget=0;pointerEvents=0;fillColor=none;points=[[0,0.5],[1,0.5]];portConstraint=eastwest;top=0;left=0;right=0;bottom=0;" parent="ncc67CK_6W_dvuO7v1l9-241" vertex="1">
          <mxGeometry y="90" width="240" height="30" as="geometry" />
        </mxCell>
        <mxCell id="ncc67CK_6W_dvuO7v1l9-249" value="" style="shape=partialRectangle;overflow=hidden;connectable=0;fillColor=none;top=0;left=0;bottom=0;right=0;" parent="ncc67CK_6W_dvuO7v1l9-248" vertex="1">
          <mxGeometry width="30" height="30" as="geometry">
            <mxRectangle width="30" height="30" as="alternateBounds" />
          </mxGeometry>
        </mxCell>
        <mxCell id="ncc67CK_6W_dvuO7v1l9-250" value="password" style="shape=partialRectangle;overflow=hidden;connectable=0;fillColor=none;top=0;left=0;bottom=0;right=0;align=left;spacingLeft=6;" parent="ncc67CK_6W_dvuO7v1l9-248" vertex="1">
          <mxGeometry x="30" width="210" height="30" as="geometry">
            <mxRectangle width="210" height="30" as="alternateBounds" />
          </mxGeometry>
        </mxCell>
        <mxCell id="ncc67CK_6W_dvuO7v1l9-263" value="Publisher" style="shape=table;startSize=30;container=1;collapsible=1;childLayout=tableLayout;fixedRows=1;rowLines=0;fontStyle=1;align=center;resizeLast=1;" parent="1" vertex="1">
          <mxGeometry x="-790" y="130" width="240" height="90" as="geometry" />
        </mxCell>
        <mxCell id="ncc67CK_6W_dvuO7v1l9-264" value="" style="shape=partialRectangle;collapsible=0;dropTarget=0;pointerEvents=0;fillColor=none;points=[[0,0.5],[1,0.5]];portConstraint=eastwest;top=0;left=0;right=0;bottom=1;" parent="ncc67CK_6W_dvuO7v1l9-263" vertex="1">
          <mxGeometry y="30" width="240" height="30" as="geometry" />
        </mxCell>
        <mxCell id="ncc67CK_6W_dvuO7v1l9-265" value="PK" style="shape=partialRectangle;overflow=hidden;connectable=0;fillColor=none;top=0;left=0;bottom=0;right=0;fontStyle=1;" parent="ncc67CK_6W_dvuO7v1l9-264" vertex="1">
          <mxGeometry width="30" height="30" as="geometry">
            <mxRectangle width="30" height="30" as="alternateBounds" />
          </mxGeometry>
        </mxCell>
        <mxCell id="ncc67CK_6W_dvuO7v1l9-266" value="id" style="shape=partialRectangle;overflow=hidden;connectable=0;fillColor=none;top=0;left=0;bottom=0;right=0;align=left;spacingLeft=6;fontStyle=5;" parent="ncc67CK_6W_dvuO7v1l9-264" vertex="1">
          <mxGeometry x="30" width="210" height="30" as="geometry">
            <mxRectangle width="210" height="30" as="alternateBounds" />
          </mxGeometry>
        </mxCell>
        <mxCell id="ncc67CK_6W_dvuO7v1l9-267" value="" style="shape=partialRectangle;collapsible=0;dropTarget=0;pointerEvents=0;fillColor=none;points=[[0,0.5],[1,0.5]];portConstraint=eastwest;top=0;left=0;right=0;bottom=0;" parent="ncc67CK_6W_dvuO7v1l9-263" vertex="1">
          <mxGeometry y="60" width="240" height="30" as="geometry" />
        </mxCell>
        <mxCell id="ncc67CK_6W_dvuO7v1l9-268" value="" style="shape=partialRectangle;overflow=hidden;connectable=0;fillColor=none;top=0;left=0;bottom=0;right=0;" parent="ncc67CK_6W_dvuO7v1l9-267" vertex="1">
          <mxGeometry width="30" height="30" as="geometry">
            <mxRectangle width="30" height="30" as="alternateBounds" />
          </mxGeometry>
        </mxCell>
        <mxCell id="ncc67CK_6W_dvuO7v1l9-269" value="name" style="shape=partialRectangle;overflow=hidden;connectable=0;fillColor=none;top=0;left=0;bottom=0;right=0;align=left;spacingLeft=6;" parent="ncc67CK_6W_dvuO7v1l9-267" vertex="1">
          <mxGeometry x="30" width="210" height="30" as="geometry">
            <mxRectangle width="210" height="30" as="alternateBounds" />
          </mxGeometry>
        </mxCell>
        <mxCell id="ncc67CK_6W_dvuO7v1l9-273" value="Book" style="shape=table;startSize=30;container=1;collapsible=1;childLayout=tableLayout;fixedRows=1;rowLines=0;fontStyle=1;align=center;resizeLast=1;" parent="1" vertex="1">
          <mxGeometry x="-460" y="150" width="240" height="180" as="geometry" />
        </mxCell>
        <mxCell id="ncc67CK_6W_dvuO7v1l9-274" value="" style="shape=partialRectangle;collapsible=0;dropTarget=0;pointerEvents=0;fillColor=none;points=[[0,0.5],[1,0.5]];portConstraint=eastwest;top=0;left=0;right=0;bottom=1;" parent="ncc67CK_6W_dvuO7v1l9-273" vertex="1">
          <mxGeometry y="30" width="240" height="30" as="geometry" />
        </mxCell>
        <mxCell id="ncc67CK_6W_dvuO7v1l9-275" value="PK" style="shape=partialRectangle;overflow=hidden;connectable=0;fillColor=none;top=0;left=0;bottom=0;right=0;fontStyle=1;" parent="ncc67CK_6W_dvuO7v1l9-274" vertex="1">
          <mxGeometry width="30" height="30" as="geometry">
            <mxRectangle width="30" height="30" as="alternateBounds" />
          </mxGeometry>
        </mxCell>
        <mxCell id="ncc67CK_6W_dvuO7v1l9-276" value="id" style="shape=partialRectangle;overflow=hidden;connectable=0;fillColor=none;top=0;left=0;bottom=0;right=0;align=left;spacingLeft=6;fontStyle=5;" parent="ncc67CK_6W_dvuO7v1l9-274" vertex="1">
          <mxGeometry x="30" width="210" height="30" as="geometry">
            <mxRectangle width="210" height="30" as="alternateBounds" />
          </mxGeometry>
        </mxCell>
        <mxCell id="ncc67CK_6W_dvuO7v1l9-277" value="" style="shape=partialRectangle;collapsible=0;dropTarget=0;pointerEvents=0;fillColor=none;points=[[0,0.5],[1,0.5]];portConstraint=eastwest;top=0;left=0;right=0;bottom=0;" parent="ncc67CK_6W_dvuO7v1l9-273" vertex="1">
          <mxGeometry y="60" width="240" height="30" as="geometry" />
        </mxCell>
        <mxCell id="ncc67CK_6W_dvuO7v1l9-278" value="" style="shape=partialRectangle;overflow=hidden;connectable=0;fillColor=none;top=0;left=0;bottom=0;right=0;" parent="ncc67CK_6W_dvuO7v1l9-277" vertex="1">
          <mxGeometry width="30" height="30" as="geometry">
            <mxRectangle width="30" height="30" as="alternateBounds" />
          </mxGeometry>
        </mxCell>
        <mxCell id="ncc67CK_6W_dvuO7v1l9-279" value="title" style="shape=partialRectangle;overflow=hidden;connectable=0;fillColor=none;top=0;left=0;bottom=0;right=0;align=left;spacingLeft=6;" parent="ncc67CK_6W_dvuO7v1l9-277" vertex="1">
          <mxGeometry x="30" width="210" height="30" as="geometry">
            <mxRectangle width="210" height="30" as="alternateBounds" />
          </mxGeometry>
        </mxCell>
        <mxCell id="ncc67CK_6W_dvuO7v1l9-280" style="shape=partialRectangle;collapsible=0;dropTarget=0;pointerEvents=0;fillColor=none;points=[[0,0.5],[1,0.5]];portConstraint=eastwest;top=0;left=0;right=0;bottom=0;" parent="ncc67CK_6W_dvuO7v1l9-273" vertex="1">
          <mxGeometry y="90" width="240" height="30" as="geometry" />
        </mxCell>
        <mxCell id="ncc67CK_6W_dvuO7v1l9-281" value="" style="shape=partialRectangle;overflow=hidden;connectable=0;fillColor=none;top=0;left=0;bottom=0;right=0;" parent="ncc67CK_6W_dvuO7v1l9-280" vertex="1">
          <mxGeometry width="30" height="30" as="geometry">
            <mxRectangle width="30" height="30" as="alternateBounds" />
          </mxGeometry>
        </mxCell>
        <mxCell id="ncc67CK_6W_dvuO7v1l9-282" value="author" style="shape=partialRectangle;overflow=hidden;connectable=0;fillColor=none;top=0;left=0;bottom=0;right=0;align=left;spacingLeft=6;" parent="ncc67CK_6W_dvuO7v1l9-280" vertex="1">
          <mxGeometry x="30" width="210" height="30" as="geometry">
            <mxRectangle width="210" height="30" as="alternateBounds" />
          </mxGeometry>
        </mxCell>
        <mxCell id="ncc67CK_6W_dvuO7v1l9-283" style="shape=partialRectangle;collapsible=0;dropTarget=0;pointerEvents=0;fillColor=none;points=[[0,0.5],[1,0.5]];portConstraint=eastwest;top=0;left=0;right=0;bottom=0;" parent="ncc67CK_6W_dvuO7v1l9-273" vertex="1">
          <mxGeometry y="120" width="240" height="30" as="geometry" />
        </mxCell>
        <mxCell id="ncc67CK_6W_dvuO7v1l9-284" value="FK1" style="shape=partialRectangle;overflow=hidden;connectable=0;fillColor=none;top=0;left=0;bottom=0;right=0;" parent="ncc67CK_6W_dvuO7v1l9-283" vertex="1">
          <mxGeometry width="30" height="30" as="geometry">
            <mxRectangle width="30" height="30" as="alternateBounds" />
          </mxGeometry>
        </mxCell>
        <mxCell id="ncc67CK_6W_dvuO7v1l9-285" value="id_publisher" style="shape=partialRectangle;overflow=hidden;connectable=0;fillColor=none;top=0;left=0;bottom=0;right=0;align=left;spacingLeft=6;" parent="ncc67CK_6W_dvuO7v1l9-283" vertex="1">
          <mxGeometry x="30" width="210" height="30" as="geometry">
            <mxRectangle width="210" height="30" as="alternateBounds" />
          </mxGeometry>
        </mxCell>
        <mxCell id="ncc67CK_6W_dvuO7v1l9-286" style="shape=partialRectangle;collapsible=0;dropTarget=0;pointerEvents=0;fillColor=none;points=[[0,0.5],[1,0.5]];portConstraint=eastwest;top=0;left=0;right=0;bottom=0;" parent="ncc67CK_6W_dvuO7v1l9-273" vertex="1">
          <mxGeometry y="150" width="240" height="30" as="geometry" />
        </mxCell>
        <mxCell id="ncc67CK_6W_dvuO7v1l9-287" style="shape=partialRectangle;overflow=hidden;connectable=0;fillColor=none;top=0;left=0;bottom=0;right=0;" parent="ncc67CK_6W_dvuO7v1l9-286" vertex="1">
          <mxGeometry width="30" height="30" as="geometry">
            <mxRectangle width="30" height="30" as="alternateBounds" />
          </mxGeometry>
        </mxCell>
        <mxCell id="ncc67CK_6W_dvuO7v1l9-288" value="image" style="shape=partialRectangle;overflow=hidden;connectable=0;fillColor=none;top=0;left=0;bottom=0;right=0;align=left;spacingLeft=6;" parent="ncc67CK_6W_dvuO7v1l9-286" vertex="1">
          <mxGeometry x="30" width="210" height="30" as="geometry">
            <mxRectangle width="210" height="30" as="alternateBounds" />
          </mxGeometry>
        </mxCell>
        <mxCell id="ncc67CK_6W_dvuO7v1l9-289" value="Peminjaman" style="shape=table;startSize=30;container=1;collapsible=1;childLayout=tableLayout;fixedRows=1;rowLines=0;fontStyle=1;align=center;resizeLast=1;" parent="1" vertex="1">
          <mxGeometry x="-180" y="380" width="240" height="240" as="geometry" />
        </mxCell>
        <mxCell id="ncc67CK_6W_dvuO7v1l9-290" value="" style="shape=partialRectangle;collapsible=0;dropTarget=0;pointerEvents=0;fillColor=none;points=[[0,0.5],[1,0.5]];portConstraint=eastwest;top=0;left=0;right=0;bottom=1;" parent="ncc67CK_6W_dvuO7v1l9-289" vertex="1">
          <mxGeometry y="30" width="240" height="30" as="geometry" />
        </mxCell>
        <mxCell id="ncc67CK_6W_dvuO7v1l9-291" value="PK" style="shape=partialRectangle;overflow=hidden;connectable=0;fillColor=none;top=0;left=0;bottom=0;right=0;fontStyle=1;" parent="ncc67CK_6W_dvuO7v1l9-290" vertex="1">
          <mxGeometry width="30" height="30" as="geometry">
            <mxRectangle width="30" height="30" as="alternateBounds" />
          </mxGeometry>
        </mxCell>
        <mxCell id="ncc67CK_6W_dvuO7v1l9-292" value="id" style="shape=partialRectangle;overflow=hidden;connectable=0;fillColor=none;top=0;left=0;bottom=0;right=0;align=left;spacingLeft=6;fontStyle=5;" parent="ncc67CK_6W_dvuO7v1l9-290" vertex="1">
          <mxGeometry x="30" width="210" height="30" as="geometry">
            <mxRectangle width="210" height="30" as="alternateBounds" />
          </mxGeometry>
        </mxCell>
        <mxCell id="ncc67CK_6W_dvuO7v1l9-293" value="" style="shape=partialRectangle;collapsible=0;dropTarget=0;pointerEvents=0;fillColor=none;points=[[0,0.5],[1,0.5]];portConstraint=eastwest;top=0;left=0;right=0;bottom=0;" parent="ncc67CK_6W_dvuO7v1l9-289" vertex="1">
          <mxGeometry y="60" width="240" height="30" as="geometry" />
        </mxCell>
        <mxCell id="ncc67CK_6W_dvuO7v1l9-294" value="FK1" style="shape=partialRectangle;overflow=hidden;connectable=0;fillColor=none;top=0;left=0;bottom=0;right=0;" parent="ncc67CK_6W_dvuO7v1l9-293" vertex="1">
          <mxGeometry width="30" height="30" as="geometry">
            <mxRectangle width="30" height="30" as="alternateBounds" />
          </mxGeometry>
        </mxCell>
        <mxCell id="ncc67CK_6W_dvuO7v1l9-295" value="id_member" style="shape=partialRectangle;overflow=hidden;connectable=0;fillColor=none;top=0;left=0;bottom=0;right=0;align=left;spacingLeft=6;" parent="ncc67CK_6W_dvuO7v1l9-293" vertex="1">
          <mxGeometry x="30" width="210" height="30" as="geometry">
            <mxRectangle width="210" height="30" as="alternateBounds" />
          </mxGeometry>
        </mxCell>
        <mxCell id="ncc67CK_6W_dvuO7v1l9-296" style="shape=partialRectangle;collapsible=0;dropTarget=0;pointerEvents=0;fillColor=none;points=[[0,0.5],[1,0.5]];portConstraint=eastwest;top=0;left=0;right=0;bottom=0;" parent="ncc67CK_6W_dvuO7v1l9-289" vertex="1">
          <mxGeometry y="90" width="240" height="30" as="geometry" />
        </mxCell>
        <mxCell id="ncc67CK_6W_dvuO7v1l9-297" value="FK2" style="shape=partialRectangle;overflow=hidden;connectable=0;fillColor=none;top=0;left=0;bottom=0;right=0;" parent="ncc67CK_6W_dvuO7v1l9-296" vertex="1">
          <mxGeometry width="30" height="30" as="geometry">
            <mxRectangle width="30" height="30" as="alternateBounds" />
          </mxGeometry>
        </mxCell>
        <mxCell id="ncc67CK_6W_dvuO7v1l9-298" value="id_book" style="shape=partialRectangle;overflow=hidden;connectable=0;fillColor=none;top=0;left=0;bottom=0;right=0;align=left;spacingLeft=6;" parent="ncc67CK_6W_dvuO7v1l9-296" vertex="1">
          <mxGeometry x="30" width="210" height="30" as="geometry">
            <mxRectangle width="210" height="30" as="alternateBounds" />
          </mxGeometry>
        </mxCell>
        <mxCell id="ncc67CK_6W_dvuO7v1l9-299" style="shape=partialRectangle;collapsible=0;dropTarget=0;pointerEvents=0;fillColor=none;points=[[0,0.5],[1,0.5]];portConstraint=eastwest;top=0;left=0;right=0;bottom=0;" parent="ncc67CK_6W_dvuO7v1l9-289" vertex="1">
          <mxGeometry y="120" width="240" height="30" as="geometry" />
        </mxCell>
        <mxCell id="ncc67CK_6W_dvuO7v1l9-300" value="" style="shape=partialRectangle;overflow=hidden;connectable=0;fillColor=none;top=0;left=0;bottom=0;right=0;" parent="ncc67CK_6W_dvuO7v1l9-299" vertex="1">
          <mxGeometry width="30" height="30" as="geometry">
            <mxRectangle width="30" height="30" as="alternateBounds" />
          </mxGeometry>
        </mxCell>
        <mxCell id="ncc67CK_6W_dvuO7v1l9-301" value="borrow_date" style="shape=partialRectangle;overflow=hidden;connectable=0;fillColor=none;top=0;left=0;bottom=0;right=0;align=left;spacingLeft=6;" parent="ncc67CK_6W_dvuO7v1l9-299" vertex="1">
          <mxGeometry x="30" width="210" height="30" as="geometry">
            <mxRectangle width="210" height="30" as="alternateBounds" />
          </mxGeometry>
        </mxCell>
        <mxCell id="ncc67CK_6W_dvuO7v1l9-302" style="shape=partialRectangle;collapsible=0;dropTarget=0;pointerEvents=0;fillColor=none;points=[[0,0.5],[1,0.5]];portConstraint=eastwest;top=0;left=0;right=0;bottom=0;" parent="ncc67CK_6W_dvuO7v1l9-289" vertex="1">
          <mxGeometry y="150" width="240" height="30" as="geometry" />
        </mxCell>
        <mxCell id="ncc67CK_6W_dvuO7v1l9-303" style="shape=partialRectangle;overflow=hidden;connectable=0;fillColor=none;top=0;left=0;bottom=0;right=0;" parent="ncc67CK_6W_dvuO7v1l9-302" vertex="1">
          <mxGeometry width="30" height="30" as="geometry">
            <mxRectangle width="30" height="30" as="alternateBounds" />
          </mxGeometry>
        </mxCell>
        <mxCell id="ncc67CK_6W_dvuO7v1l9-304" value="return_date" style="shape=partialRectangle;overflow=hidden;connectable=0;fillColor=none;top=0;left=0;bottom=0;right=0;align=left;spacingLeft=6;" parent="ncc67CK_6W_dvuO7v1l9-302" vertex="1">
          <mxGeometry x="30" width="210" height="30" as="geometry">
            <mxRectangle width="210" height="30" as="alternateBounds" />
          </mxGeometry>
        </mxCell>
        <mxCell id="ncc67CK_6W_dvuO7v1l9-307" style="shape=partialRectangle;collapsible=0;dropTarget=0;pointerEvents=0;fillColor=none;points=[[0,0.5],[1,0.5]];portConstraint=eastwest;top=0;left=0;right=0;bottom=0;" parent="ncc67CK_6W_dvuO7v1l9-289" vertex="1">
          <mxGeometry y="180" width="240" height="30" as="geometry" />
        </mxCell>
        <mxCell id="ncc67CK_6W_dvuO7v1l9-308" style="shape=partialRectangle;overflow=hidden;connectable=0;fillColor=none;top=0;left=0;bottom=0;right=0;" parent="ncc67CK_6W_dvuO7v1l9-307" vertex="1">
          <mxGeometry width="30" height="30" as="geometry">
            <mxRectangle width="30" height="30" as="alternateBounds" />
          </mxGeometry>
        </mxCell>
        <mxCell id="ncc67CK_6W_dvuO7v1l9-309" value="returned_date" style="shape=partialRectangle;overflow=hidden;connectable=0;fillColor=none;top=0;left=0;bottom=0;right=0;align=left;spacingLeft=6;" parent="ncc67CK_6W_dvuO7v1l9-307" vertex="1">
          <mxGeometry x="30" width="210" height="30" as="geometry">
            <mxRectangle width="210" height="30" as="alternateBounds" />
          </mxGeometry>
        </mxCell>
        <mxCell id="ncc67CK_6W_dvuO7v1l9-310" style="shape=partialRectangle;collapsible=0;dropTarget=0;pointerEvents=0;fillColor=none;points=[[0,0.5],[1,0.5]];portConstraint=eastwest;top=0;left=0;right=0;bottom=0;" parent="ncc67CK_6W_dvuO7v1l9-289" vertex="1">
          <mxGeometry y="210" width="240" height="30" as="geometry" />
        </mxCell>
        <mxCell id="ncc67CK_6W_dvuO7v1l9-311" style="shape=partialRectangle;overflow=hidden;connectable=0;fillColor=none;top=0;left=0;bottom=0;right=0;" parent="ncc67CK_6W_dvuO7v1l9-310" vertex="1">
          <mxGeometry width="30" height="30" as="geometry">
            <mxRectangle width="30" height="30" as="alternateBounds" />
          </mxGeometry>
        </mxCell>
        <mxCell id="ncc67CK_6W_dvuO7v1l9-312" value="charge" style="shape=partialRectangle;overflow=hidden;connectable=0;fillColor=none;top=0;left=0;bottom=0;right=0;align=left;spacingLeft=6;" parent="ncc67CK_6W_dvuO7v1l9-310" vertex="1">
          <mxGeometry x="30" width="210" height="30" as="geometry">
            <mxRectangle width="210" height="30" as="alternateBounds" />
          </mxGeometry>
        </mxCell>
        <mxCell id="ncc67CK_6W_dvuO7v1l9-316" value="" style="edgeStyle=entityRelationEdgeStyle;fontSize=12;html=1;endArrow=ERoneToMany;rounded=0;entryX=0;entryY=0.5;entryDx=0;entryDy=0;exitX=1;exitY=0.5;exitDx=0;exitDy=0;" parent="1" source="ncc67CK_6W_dvuO7v1l9-264" target="ncc67CK_6W_dvuO7v1l9-283" edge="1">
          <mxGeometry width="100" height="100" relative="1" as="geometry">
            <mxPoint x="-630" y="390" as="sourcePoint" />
            <mxPoint x="-530" y="290" as="targetPoint" />
          </mxGeometry>
        </mxCell>
        <mxCell id="ncc67CK_6W_dvuO7v1l9-317" value="" style="edgeStyle=entityRelationEdgeStyle;fontSize=12;html=1;endArrow=ERoneToMany;rounded=0;entryX=0;entryY=0.5;entryDx=0;entryDy=0;exitX=1;exitY=0.5;exitDx=0;exitDy=0;" parent="1" source="ncc67CK_6W_dvuO7v1l9-293" target="ncc67CK_6W_dvuO7v1l9-25" edge="1">
          <mxGeometry width="100" height="100" relative="1" as="geometry">
            <mxPoint y="600" as="sourcePoint" />
            <mxPoint x="100" y="500" as="targetPoint" />
          </mxGeometry>
        </mxCell>
        <mxCell id="ncc67CK_6W_dvuO7v1l9-319" value="" style="edgeStyle=entityRelationEdgeStyle;fontSize=12;html=1;endArrow=ERoneToMany;rounded=0;entryX=0;entryY=0.5;entryDx=0;entryDy=0;exitX=1;exitY=0.5;exitDx=0;exitDy=0;" parent="1" source="ncc67CK_6W_dvuO7v1l9-274" target="ncc67CK_6W_dvuO7v1l9-296" edge="1">
          <mxGeometry width="100" height="100" relative="1" as="geometry">
            <mxPoint x="-50" y="340" as="sourcePoint" />
            <mxPoint x="50" y="240" as="targetPoint" />
          </mxGeometry>
        </mxCell>
      </root>
    </mxGraphModel>
  </diagram>
  <diagram id="NpFBG_f7yU3KNBQzsQrM" name="Page-2">
    <mxGraphModel dx="1103" dy="582" grid="1" gridSize="10" guides="1" tooltips="1" connect="1" arrows="1" fold="1" page="1" pageScale="1" pageWidth="850" pageHeight="1100" math="0" shadow="0">
      <root>
        <mxCell id="OdbMsvlHKMD7i0GQG2mW-0" />
        <mxCell id="OdbMsvlHKMD7i0GQG2mW-1" parent="OdbMsvlHKMD7i0GQG2mW-0" />
        <mxCell id="OdbMsvlHKMD7i0GQG2mW-2" value="Halaman Login" style="rounded=0;whiteSpace=wrap;html=1;" vertex="1" parent="OdbMsvlHKMD7i0GQG2mW-1">
          <mxGeometry x="365" y="60" width="120" height="60" as="geometry" />
        </mxCell>
        <mxCell id="OdbMsvlHKMD7i0GQG2mW-3" value="Halaman Peminjaman Buku" style="rounded=0;whiteSpace=wrap;html=1;" vertex="1" parent="OdbMsvlHKMD7i0GQG2mW-1">
          <mxGeometry x="365" y="160" width="120" height="60" as="geometry" />
        </mxCell>
        <mxCell id="OdbMsvlHKMD7i0GQG2mW-6" value="Halaman Data Buku" style="rounded=0;whiteSpace=wrap;html=1;" vertex="1" parent="OdbMsvlHKMD7i0GQG2mW-1">
          <mxGeometry x="90" y="280" width="120" height="60" as="geometry" />
        </mxCell>
        <mxCell id="OdbMsvlHKMD7i0GQG2mW-7" value="Halaman Data Anggota" style="rounded=0;whiteSpace=wrap;html=1;" vertex="1" parent="OdbMsvlHKMD7i0GQG2mW-1">
          <mxGeometry x="245" y="280" width="120" height="60" as="geometry" />
        </mxCell>
        <mxCell id="OdbMsvlHKMD7i0GQG2mW-8" value="Halaman Data Penerbit" style="rounded=0;whiteSpace=wrap;html=1;" vertex="1" parent="OdbMsvlHKMD7i0GQG2mW-1">
          <mxGeometry x="400" y="280" width="120" height="60" as="geometry" />
        </mxCell>
        <mxCell id="OdbMsvlHKMD7i0GQG2mW-10" value="Logout" style="rounded=0;whiteSpace=wrap;html=1;" vertex="1" parent="OdbMsvlHKMD7i0GQG2mW-1">
          <mxGeometry x="560" y="280" width="120" height="60" as="geometry" />
        </mxCell>
        <mxCell id="OdbMsvlHKMD7i0GQG2mW-11" value="Konfirmasi Logout" style="rounded=0;whiteSpace=wrap;html=1;" vertex="1" parent="OdbMsvlHKMD7i0GQG2mW-1">
          <mxGeometry x="560" y="370" width="120" height="60" as="geometry" />
        </mxCell>
        <mxCell id="OdbMsvlHKMD7i0GQG2mW-12" value="Halaman Tambah Data Buku" style="rounded=0;whiteSpace=wrap;html=1;" vertex="1" parent="OdbMsvlHKMD7i0GQG2mW-1">
          <mxGeometry x="90" y="370" width="120" height="60" as="geometry" />
        </mxCell>
        <mxCell id="OdbMsvlHKMD7i0GQG2mW-13" value="Halaman Tambah Ubah Data Buku" style="rounded=0;whiteSpace=wrap;html=1;" vertex="1" parent="OdbMsvlHKMD7i0GQG2mW-1">
          <mxGeometry x="90" y="460" width="120" height="60" as="geometry" />
        </mxCell>
        <mxCell id="OdbMsvlHKMD7i0GQG2mW-14" value="Konfirmasi Hapus Buku" style="rounded=0;whiteSpace=wrap;html=1;" vertex="1" parent="OdbMsvlHKMD7i0GQG2mW-1">
          <mxGeometry x="90" y="550" width="120" height="60" as="geometry" />
        </mxCell>
        <mxCell id="OdbMsvlHKMD7i0GQG2mW-15" value="Tampilan Tambah Data Anggota" style="rounded=0;whiteSpace=wrap;html=1;" vertex="1" parent="OdbMsvlHKMD7i0GQG2mW-1">
          <mxGeometry x="245" y="370" width="120" height="60" as="geometry" />
        </mxCell>
        <mxCell id="OdbMsvlHKMD7i0GQG2mW-16" value="Tampilan Ubah Data Anggota" style="rounded=0;whiteSpace=wrap;html=1;" vertex="1" parent="OdbMsvlHKMD7i0GQG2mW-1">
          <mxGeometry x="245" y="460" width="120" height="60" as="geometry" />
        </mxCell>
        <mxCell id="OdbMsvlHKMD7i0GQG2mW-17" value="Konfirmasi Hapus Anggota" style="rounded=0;whiteSpace=wrap;html=1;" vertex="1" parent="OdbMsvlHKMD7i0GQG2mW-1">
          <mxGeometry x="245" y="550" width="120" height="60" as="geometry" />
        </mxCell>
        <mxCell id="OdbMsvlHKMD7i0GQG2mW-18" value="Tampilan Tambah Data Penerbit" style="rounded=0;whiteSpace=wrap;html=1;" vertex="1" parent="OdbMsvlHKMD7i0GQG2mW-1">
          <mxGeometry x="400" y="370" width="120" height="60" as="geometry" />
        </mxCell>
        <mxCell id="OdbMsvlHKMD7i0GQG2mW-19" value="Tampilan Ubah Data Penerbit" style="rounded=0;whiteSpace=wrap;html=1;" vertex="1" parent="OdbMsvlHKMD7i0GQG2mW-1">
          <mxGeometry x="400" y="460" width="120" height="60" as="geometry" />
        </mxCell>
        <mxCell id="OdbMsvlHKMD7i0GQG2mW-20" value="Konfirmasi Hapus Anggota" style="rounded=0;whiteSpace=wrap;html=1;" vertex="1" parent="OdbMsvlHKMD7i0GQG2mW-1">
          <mxGeometry x="400" y="550" width="120" height="60" as="geometry" />
        </mxCell>
        <mxCell id="OdbMsvlHKMD7i0GQG2mW-21" value="Halaman Tambah Data Peminjaman" style="rounded=0;whiteSpace=wrap;html=1;" vertex="1" parent="OdbMsvlHKMD7i0GQG2mW-1">
          <mxGeometry x="540" y="160" width="120" height="60" as="geometry" />
        </mxCell>
        <mxCell id="OdbMsvlHKMD7i0GQG2mW-22" value="Konfirmasi Pengembalian Buku" style="rounded=0;whiteSpace=wrap;html=1;" vertex="1" parent="OdbMsvlHKMD7i0GQG2mW-1">
          <mxGeometry x="680" y="160" width="120" height="60" as="geometry" />
        </mxCell>
        <mxCell id="OdbMsvlHKMD7i0GQG2mW-23" value="Konfirmasi Hapus Data Peminjaman" style="rounded=0;whiteSpace=wrap;html=1;" vertex="1" parent="OdbMsvlHKMD7i0GQG2mW-1">
          <mxGeometry x="820" y="160" width="120" height="60" as="geometry" />
        </mxCell>
        <mxCell id="OdbMsvlHKMD7i0GQG2mW-24" value="" style="endArrow=none;html=1;rounded=0;entryX=0.5;entryY=1;entryDx=0;entryDy=0;exitX=0.5;exitY=0;exitDx=0;exitDy=0;" edge="1" parent="OdbMsvlHKMD7i0GQG2mW-1" source="OdbMsvlHKMD7i0GQG2mW-3" target="OdbMsvlHKMD7i0GQG2mW-2">
          <mxGeometry width="50" height="50" relative="1" as="geometry">
            <mxPoint x="400" y="330" as="sourcePoint" />
            <mxPoint x="450" y="280" as="targetPoint" />
          </mxGeometry>
        </mxCell>
        <mxCell id="OdbMsvlHKMD7i0GQG2mW-25" value="" style="endArrow=none;html=1;rounded=0;entryX=0.5;entryY=1;entryDx=0;entryDy=0;exitX=0.5;exitY=0;exitDx=0;exitDy=0;" edge="1" parent="OdbMsvlHKMD7i0GQG2mW-1" source="OdbMsvlHKMD7i0GQG2mW-6" target="OdbMsvlHKMD7i0GQG2mW-3">
          <mxGeometry width="50" height="50" relative="1" as="geometry">
            <mxPoint x="190" y="230" as="sourcePoint" />
            <mxPoint x="240" y="180" as="targetPoint" />
          </mxGeometry>
        </mxCell>
        <mxCell id="OdbMsvlHKMD7i0GQG2mW-26" value="" style="endArrow=none;html=1;rounded=0;exitX=0.5;exitY=0;exitDx=0;exitDy=0;entryX=0.5;entryY=1;entryDx=0;entryDy=0;" edge="1" parent="OdbMsvlHKMD7i0GQG2mW-1" source="OdbMsvlHKMD7i0GQG2mW-7" target="OdbMsvlHKMD7i0GQG2mW-3">
          <mxGeometry width="50" height="50" relative="1" as="geometry">
            <mxPoint x="160" y="290" as="sourcePoint" />
            <mxPoint x="450" y="240" as="targetPoint" />
          </mxGeometry>
        </mxCell>
        <mxCell id="OdbMsvlHKMD7i0GQG2mW-27" value="" style="endArrow=none;html=1;rounded=0;entryX=0.5;entryY=1;entryDx=0;entryDy=0;exitX=0.5;exitY=0;exitDx=0;exitDy=0;" edge="1" parent="OdbMsvlHKMD7i0GQG2mW-1" source="OdbMsvlHKMD7i0GQG2mW-8" target="OdbMsvlHKMD7i0GQG2mW-3">
          <mxGeometry width="50" height="50" relative="1" as="geometry">
            <mxPoint x="170" y="300" as="sourcePoint" />
            <mxPoint x="445" y="240" as="targetPoint" />
          </mxGeometry>
        </mxCell>
        <mxCell id="OdbMsvlHKMD7i0GQG2mW-28" value="" style="endArrow=none;html=1;rounded=0;entryX=1;entryY=0.5;entryDx=0;entryDy=0;exitX=0;exitY=0.5;exitDx=0;exitDy=0;" edge="1" parent="OdbMsvlHKMD7i0GQG2mW-1" source="OdbMsvlHKMD7i0GQG2mW-21" target="OdbMsvlHKMD7i0GQG2mW-3">
          <mxGeometry width="50" height="50" relative="1" as="geometry">
            <mxPoint x="620" y="280" as="sourcePoint" />
            <mxPoint x="435" y="230" as="targetPoint" />
          </mxGeometry>
        </mxCell>
        <mxCell id="OdbMsvlHKMD7i0GQG2mW-29" value="" style="endArrow=none;html=1;rounded=0;entryX=0.5;entryY=1;entryDx=0;entryDy=0;exitX=0.5;exitY=0;exitDx=0;exitDy=0;" edge="1" parent="OdbMsvlHKMD7i0GQG2mW-1" source="OdbMsvlHKMD7i0GQG2mW-10" target="OdbMsvlHKMD7i0GQG2mW-3">
          <mxGeometry width="50" height="50" relative="1" as="geometry">
            <mxPoint x="480" y="300" as="sourcePoint" />
            <mxPoint x="445" y="240" as="targetPoint" />
          </mxGeometry>
        </mxCell>
        <mxCell id="OdbMsvlHKMD7i0GQG2mW-31" value="" style="endArrow=none;html=1;rounded=0;entryX=0;entryY=0.5;entryDx=0;entryDy=0;exitX=1;exitY=0.5;exitDx=0;exitDy=0;" edge="1" parent="OdbMsvlHKMD7i0GQG2mW-1" source="OdbMsvlHKMD7i0GQG2mW-21" target="OdbMsvlHKMD7i0GQG2mW-22">
          <mxGeometry width="50" height="50" relative="1" as="geometry">
            <mxPoint x="750" y="340" as="sourcePoint" />
            <mxPoint x="800" y="290" as="targetPoint" />
          </mxGeometry>
        </mxCell>
        <mxCell id="OdbMsvlHKMD7i0GQG2mW-32" value="" style="endArrow=none;html=1;rounded=0;entryX=0;entryY=0.5;entryDx=0;entryDy=0;exitX=1;exitY=0.5;exitDx=0;exitDy=0;" edge="1" parent="OdbMsvlHKMD7i0GQG2mW-1" source="OdbMsvlHKMD7i0GQG2mW-22" target="OdbMsvlHKMD7i0GQG2mW-23">
          <mxGeometry width="50" height="50" relative="1" as="geometry">
            <mxPoint x="670" y="200" as="sourcePoint" />
            <mxPoint x="690" y="200" as="targetPoint" />
          </mxGeometry>
        </mxCell>
        <mxCell id="OdbMsvlHKMD7i0GQG2mW-33" value="" style="endArrow=none;html=1;rounded=0;entryX=0.5;entryY=1;entryDx=0;entryDy=0;exitX=0.5;exitY=0;exitDx=0;exitDy=0;" edge="1" parent="OdbMsvlHKMD7i0GQG2mW-1" source="OdbMsvlHKMD7i0GQG2mW-11" target="OdbMsvlHKMD7i0GQG2mW-10">
          <mxGeometry width="50" height="50" relative="1" as="geometry">
            <mxPoint x="740" y="340" as="sourcePoint" />
            <mxPoint x="790" y="290" as="targetPoint" />
          </mxGeometry>
        </mxCell>
        <mxCell id="OdbMsvlHKMD7i0GQG2mW-34" value="" style="endArrow=none;html=1;rounded=0;entryX=0.5;entryY=1;entryDx=0;entryDy=0;exitX=0.5;exitY=0;exitDx=0;exitDy=0;" edge="1" parent="OdbMsvlHKMD7i0GQG2mW-1" source="OdbMsvlHKMD7i0GQG2mW-18" target="OdbMsvlHKMD7i0GQG2mW-8">
          <mxGeometry width="50" height="50" relative="1" as="geometry">
            <mxPoint x="640" y="500" as="sourcePoint" />
            <mxPoint x="690" y="450" as="targetPoint" />
          </mxGeometry>
        </mxCell>
        <mxCell id="OdbMsvlHKMD7i0GQG2mW-35" value="" style="endArrow=none;html=1;rounded=0;entryX=0.5;entryY=1;entryDx=0;entryDy=0;exitX=0.5;exitY=0;exitDx=0;exitDy=0;" edge="1" parent="OdbMsvlHKMD7i0GQG2mW-1" source="OdbMsvlHKMD7i0GQG2mW-19" target="OdbMsvlHKMD7i0GQG2mW-18">
          <mxGeometry width="50" height="50" relative="1" as="geometry">
            <mxPoint x="480" y="390" as="sourcePoint" />
            <mxPoint x="530" y="340" as="targetPoint" />
          </mxGeometry>
        </mxCell>
        <mxCell id="OdbMsvlHKMD7i0GQG2mW-36" value="" style="endArrow=none;html=1;rounded=0;entryX=0.5;entryY=1;entryDx=0;entryDy=0;exitX=0.5;exitY=0;exitDx=0;exitDy=0;" edge="1" parent="OdbMsvlHKMD7i0GQG2mW-1" source="OdbMsvlHKMD7i0GQG2mW-20" target="OdbMsvlHKMD7i0GQG2mW-19">
          <mxGeometry width="50" height="50" relative="1" as="geometry">
            <mxPoint x="520" y="530" as="sourcePoint" />
            <mxPoint x="570" y="480" as="targetPoint" />
          </mxGeometry>
        </mxCell>
        <mxCell id="OdbMsvlHKMD7i0GQG2mW-37" value="" style="endArrow=none;html=1;rounded=0;entryX=0.5;entryY=1;entryDx=0;entryDy=0;exitX=0.5;exitY=0;exitDx=0;exitDy=0;" edge="1" parent="OdbMsvlHKMD7i0GQG2mW-1" source="OdbMsvlHKMD7i0GQG2mW-15" target="OdbMsvlHKMD7i0GQG2mW-7">
          <mxGeometry width="50" height="50" relative="1" as="geometry">
            <mxPoint x="680" y="210" as="sourcePoint" />
            <mxPoint x="700" y="210" as="targetPoint" />
          </mxGeometry>
        </mxCell>
        <mxCell id="OdbMsvlHKMD7i0GQG2mW-38" value="" style="endArrow=none;html=1;rounded=0;entryX=0.5;entryY=1;entryDx=0;entryDy=0;" edge="1" parent="OdbMsvlHKMD7i0GQG2mW-1" source="OdbMsvlHKMD7i0GQG2mW-16" target="OdbMsvlHKMD7i0GQG2mW-15">
          <mxGeometry width="50" height="50" relative="1" as="geometry">
            <mxPoint x="315" y="380" as="sourcePoint" />
            <mxPoint x="315" y="350" as="targetPoint" />
          </mxGeometry>
        </mxCell>
        <mxCell id="OdbMsvlHKMD7i0GQG2mW-39" value="" style="endArrow=none;html=1;rounded=0;entryX=0.5;entryY=1;entryDx=0;entryDy=0;exitX=0.5;exitY=0;exitDx=0;exitDy=0;" edge="1" parent="OdbMsvlHKMD7i0GQG2mW-1" source="OdbMsvlHKMD7i0GQG2mW-17" target="OdbMsvlHKMD7i0GQG2mW-16">
          <mxGeometry width="50" height="50" relative="1" as="geometry">
            <mxPoint x="325" y="390" as="sourcePoint" />
            <mxPoint x="325" y="360" as="targetPoint" />
          </mxGeometry>
        </mxCell>
        <mxCell id="OdbMsvlHKMD7i0GQG2mW-40" value="" style="endArrow=none;html=1;rounded=0;entryX=0.5;entryY=1;entryDx=0;entryDy=0;" edge="1" parent="OdbMsvlHKMD7i0GQG2mW-1" source="OdbMsvlHKMD7i0GQG2mW-12" target="OdbMsvlHKMD7i0GQG2mW-6">
          <mxGeometry width="50" height="50" relative="1" as="geometry">
            <mxPoint x="335" y="400" as="sourcePoint" />
            <mxPoint x="335" y="370" as="targetPoint" />
          </mxGeometry>
        </mxCell>
        <mxCell id="OdbMsvlHKMD7i0GQG2mW-41" value="" style="endArrow=none;html=1;rounded=0;entryX=0.5;entryY=1;entryDx=0;entryDy=0;exitX=0.5;exitY=0;exitDx=0;exitDy=0;" edge="1" parent="OdbMsvlHKMD7i0GQG2mW-1" source="OdbMsvlHKMD7i0GQG2mW-13" target="OdbMsvlHKMD7i0GQG2mW-12">
          <mxGeometry width="50" height="50" relative="1" as="geometry">
            <mxPoint x="345" y="410" as="sourcePoint" />
            <mxPoint x="345" y="380" as="targetPoint" />
          </mxGeometry>
        </mxCell>
        <mxCell id="OdbMsvlHKMD7i0GQG2mW-42" value="" style="endArrow=none;html=1;rounded=0;entryX=0.5;entryY=1;entryDx=0;entryDy=0;exitX=0.5;exitY=0;exitDx=0;exitDy=0;" edge="1" parent="OdbMsvlHKMD7i0GQG2mW-1" source="OdbMsvlHKMD7i0GQG2mW-14" target="OdbMsvlHKMD7i0GQG2mW-13">
          <mxGeometry width="50" height="50" relative="1" as="geometry">
            <mxPoint x="355" y="420" as="sourcePoint" />
            <mxPoint x="355" y="390" as="targetPoint" />
          </mxGeometry>
        </mxCell>
      </root>
    </mxGraphModel>
  </diagram>
</mxfile>
